Patient4_TMGait_0pt4_02_left_23_EMG.mot
version=1
nRows=20
nColumns=33
inDegrees=no
endheader
time	1LAddLong	2LGlutMax	3LGlutMed	4LIliopsoas	5LSemiMemb	6LBicFemLong	7LRecFem	8LVastMed	9LVastLat	10LGasMed	11LTibAnt	12lTibPost	13LPeroneusLong	14LSol	15LExtDigLong	16LFlexDigLong	17RAddLong	18RGlutMax	19RGlutMed	20RIliopsoas	21RSemiMemb	22RBicFemLong	23RRecFem	24RVastMed	25RVastLat	26RGasMed	27RTibAnt	28RTibPost	29RPeroneusLong	30RSol	31RExtDigLong	32RFlexDigLong
31.755	0.003204	0.11917	0.12299	0.014191	-0.011902	0.060577	-0.019531	-0.00412	-0.028687	0.22995	0.012817	0.11231	-0.23056	-0.043945	0.010529	-0.10742	-0.085907	-0.18234	-0.045929	0.059204	0.71213	-0.045776	-0.17319	0.23697	-0.32364	-0.003662	0.03006	0.001526	-1.0454	-0.017242	0.001221	-0.00351
31.756	0.002441	0.11719	0.1294	0.005188	0.007782	-0.0177	-0.025787	-0.003204	-0.019836	0.40253	-0.006409	-0.16235	0.02655	0.010986	0.040588	0.056	0.005035	-0.22705	0.38345	0.025024	0.74173	-0.050812	-0.2739	0.23987	-0.27069	-0.001526	0.026398	0.002289	-0.23743	-0.062561	0.004272	-0.011444
31.757	0.005798	0.043793	0.14786	-0.00061	0.034485	-0.071106	-0.027313	0.004883	-0.033112	0.5838	0.030823	-0.61157	0.036621	0.25696	0.066681	0.24262	0.044556	-0.28275	0.73456	-0.007172	0.5545	-0.11185	-0.34042	0.25894	-0.16388	0.001678	0.023193	-0.001068	0.44739	-0.028992	-0.006104	-0.016479
31.758	0.003357	0.081787	0.12146	0.007935	0.038757	-0.029449	0.007935	0.003204	-0.03891	0.392	0.007324	0.47058	0.072632	0.45593	0.005341	-0.11643	0.073242	-0.30075	0.20035	-0.023041	0.31387	-0.1767	-0.289	0.19089	0.044861	-0.002899	0.030518	0.001678	0.097656	0.000305	0.000305	-0.014954
31.759	-0.002594	0.057526	0.14648	0.014343	0.039825	0.020752	0.033569	0.00473	-0.054321	0.006104	0.015717	0.31448	-0.060272	0.19073	-0.083008	-0.48599	0.075378	-0.25085	0.044098	-0.028534	0.18219	-0.18036	-0.21439	0.093079	0.12772	-0.009918	0.031128	0.006256	0.2945	-0.005341	0.000153	-0.009003
31.76	0.000916	0.10757	0.20279	0.020294	0.011749	0.019836	0.049133	0.000763	-0.057526	-0.63477	0.004425	0.063324	-0.007935	-0.46677	-0.11063	-0.4715	0.065002	-0.10513	0.30121	-0.061188	0.14069	-0.14038	-0.23163	-0.04425	0.045776	-0.010834	0.014038	-0.000763	0.38849	-0.019073	-0.001068	-0.010223
31.761	0.001526	0.11627	0.2034	0.022888	0.009155	0.013733	0.030365	0.00412	-0.026245	-0.63309	0.014801	-0.12512	-0.017853	-0.47485	-0.096588	0.99579	-0.054932	-0.13443	0.42633	-0.038605	-0.24078	0.051117	-0.46341	0.12955	0.17685	-0.005341	0.009308	-0.00061	0.014343	-0.027161	-0.001526	-0.011292
31.762	0.006256	0.074768	0.121	0.011749	-0.000458	0.065155	0.077515	-0.000153	-0.032043	-0.52094	0.012512	-0.003204	-0.051422	-0.090179	-0.049133	-0.13412	-0.12299	-0.072784	0.39505	-0.074463	-0.41794	0.09964	-0.5275	0.060425	0.26901	-0.003357	0.015717	-0.004578	-0.2478	-0.011444	0.00061	-0.013428
31.763	-0.000763	0.097504	0.16007	0.004883	0.001221	0.10529	0.088806	-0.001221	-0.032501	-0.47943	0.018005	-0.011749	0.018158	0.35263	-0.008545	0.14969	-0.10559	-0.056915	0.31235	-0.085144	-0.17105	0.012665	-0.43488	-0.13382	0.2356	-0.005798	0.003662	0.000153	-0.016785	-0.026093	-0.000458	-0.007324
31.764	0.002594	0.10223	0.20599	0.006256	-0.007019	0.04715	0.095673	0.028229	-0.040894	-0.092773	0.011444	-0.009003	0.082397	0.39093	-0.019226	-0.19302	-0.055389	-0.001678	-0.031281	-0.03952	-0.013123	0.00061	-0.31876	-0.066223	0.21591	-0.001373	0.043488	-0.000305	0.31357	-0.059509	0	-0.016632
31.765	0.002594	0.1358	0.15503	0.018158	-0.00061	0.012665	0.085449	0.011749	-0.039978	-0.074463	0.005646	-0.035553	0.057983	-0.098114	-0.027771	0.33157	-0.081635	-0.076294	-0.28366	-0.10071	0.28885	0.020905	-0.30579	0.15243	0.26855	0.002289	0.052795	-0.000916	0.34042	-0.047302	0.001221	-0.005798
31.766	0.00061	0.11261	0.20798	0.024719	0.001526	-0.011902	0.10346	0.004425	-0.022888	0.038605	0.016937	-0.029144	0.00473	-0.3186	-0.020294	-0.10208	-0.085297	-0.018005	-0.32715	-0.17761	0.66681	0.023499	-0.27344	0.20523	0.29236	-0.00473	-0.01358	0.007477	0.049744	-0.060577	0.001678	-0.004578
31.767	0.002594	0.08194	0.1918	0.022125	0.003204	-0.028687	0.11276	0.007782	-0.021973	0.082855	0.005493	-0.020294	0.014343	-0.31799	0.009766	-0.042877	-0.079651	-0.058899	-0.45715	-0.13718	0.60028	0.05188	-0.26489	0.3067	0.25574	-0.002594	-0.001373	0.009766	-0.22415	-0.064545	0.000305	-0.012512
31.768	0.002136	0.092468	0.18463	0.01236	0.006409	0.010834	0.12543	0.012512	-0.005798	0.041809	0.01709	-0.019989	0.012817	-0.14877	0.033417	-0.024872	-0.054321	-0.063019	-0.22873	-0.07431	0.46387	-0.028534	-0.19058	0.35584	0.19592	0.001373	0.053101	0.001678	-0.57465	-0.070953	0.002747	-0.007019
31.769	-0.004425	0.087585	0.19669	0.011444	0.006866	0.022278	0.13626	0.00351	-0.009766	0.002594	0.016479	-0.005493	-0.013885	0.13916	0.053406	-0.0383	-0.014191	0.03891	0.007172	0.056763	0.46356	-0.084839	-0.15762	0.24384	0.068817	-0.001221	0.04776	-0.001831	-0.50827	-0.070038	-0.001984	0.002747
31.77	-0.00061	0.084839	0.23071	0.005951	0.009613	0.026855	0.13428	0.017395	-0.010681	0.020752	0.004883	0.000458	-0.092163	0.22553	0.062103	-0.044403	-0.007324	-0.045166	0.23865	0.2475	0.52567	-0.086365	-0.1648	0.10574	-0.002594	0.000458	-0.020447	-0.000458	-0.053253	-0.084534	0	-0.000763
31.771	-0.000916	0.12726	0.20554	0.012054	0.005341	0.035706	0.11444	0.003967	0.005951	-0.033417	0	-0.003357	0.23972	0.34576	0.049591	-0.035553	-0.011139	0.061646	-0.098724	0.30014	0.38132	-0.061035	-0.21683	-0.036163	-0.002747	0.002136	-0.020142	0	0.079651	-0.081482	-0.00061	-0.009613
31.772	0.001221	0.083618	0.2771	0.014954	0.004578	0.046234	0.11231	0.006409	-0.008545	-0.038452	0.005493	-0.018158	0.007935	0.23987	0.027008	-0.017242	0.039215	0.094604	-0.5809	0.12299	0.26428	-0.10162	-0.20996	-0.19165	0.44159	-0.003052	0.007019	0.002136	0.068817	-0.082703	-0.001984	-0.007172
31.773	0.000305	0.10544	0.29816	0.014038	-0.00061	0.015564	0.078278	0.007324	0.010986	-0.037231	0.018921	-0.01236	0.072021	0.053406	-0.000763	-0.019226	0.1181	0.13962	-0.57037	-0.066833	0.13107	-0.21149	-0.11292	-0.18967	0.70587	-0.00473	0.025787	0	0.29556	-0.05661	-0.004578	-0.010071
31.774	-0.000153	0.10956	0.28229	0.00412	-0.011902	0.029907	0.066071	0.012512	0.016479	-0.013428	0.016632	-0.006409	0.036621	0.095062	0.007935	-0.020447	0.19089	0.16449	-0.42618	-0.07019	0.13245	-0.24872	-0.07309	-0.34866	0.57175	-0.005646	0.072784	0.000763	-0.10422	-0.05249	0.00351	-0.011444
